<svg width="208" height="40" viewBox="0 0 208 40" fill="none" xmlns="http://www.w3.org/2000/svg">
<path d="M54.6372 5.87695H67.1223C73.1887 5.87695 76.7112 9.20342 76.7112 14.7867C76.7112 20.3699 73.1887 23.7356 67.1223 23.7356H60.5475V34.022H54.6372V5.87695ZM66.0655 19.1849C69.2358 19.1849 70.9971 17.7319 70.9971 14.7867C70.9971 11.8415 69.2358 10.4648 66.0655 10.4648H60.5475V19.1828H66.0655V19.1849Z" fill="#282828"/>
<path d="M79.373 27.6371C79.373 23.4306 82.3092 21.5571 91.818 21.5571H93.5792V20.372C93.5792 17.8102 92.3263 16.8539 89.4302 16.8539C86.8864 16.8539 84.2244 17.5814 81.8367 19.0344L80.1935 15.0567C82.4631 13.5274 86.4561 12.4949 89.7044 12.4949C95.967 12.4949 99.2153 15.0959 99.2153 21.0233V34.0262H93.6573V30.8914C92.6786 33.072 90.5271 34.4487 87.5128 34.4487C82.6213 34.4487 79.373 31.4664 79.373 27.6412V27.6371ZM88.7658 30.4277C91.4657 30.4277 93.5792 28.7067 93.5792 25.8378V24.5765H91.858C86.6143 24.5765 85.1272 25.5328 85.1272 27.4825C85.1272 29.2797 86.4582 30.4277 88.7679 30.4277H88.7658Z" fill="#282828"/>
<path d="M104.428 12.9132H110.22V16.5076C111.317 14.0591 113.625 12.7607 116.991 12.5298L118.713 12.3773L119.105 17.2722L115.857 17.6164C112.178 17.9214 110.455 19.529 110.455 22.5875V34.022H104.428V12.9132Z" fill="#282828"/>
<path d="M126.384 26.2601V17.2349H122.197V12.913H126.384V7.59766H132.332V12.913H138.791V17.2349H132.332V25.9921C132.332 28.4777 133.467 29.739 136.089 29.739C136.949 29.739 137.85 29.5103 138.789 29.2423L139.611 33.488C138.476 34.061 136.675 34.4443 135.032 34.4443C129.24 34.4443 126.382 31.6908 126.382 26.2601H126.384Z" fill="#282828"/>
<path d="M142.554 12.9134H148.386V16.0481C149.873 13.7542 152.417 12.4908 155.509 12.4908C160.559 12.4908 163.141 15.2052 163.141 21.1718V34.0201H157.192V21.4397C157.192 18.2266 155.902 17.0415 153.514 17.0415C150.462 17.0415 148.464 19.0675 148.464 22.0519V34.0222H142.554V12.9134Z" fill="#282828"/>
<path d="M167.161 23.5068C167.161 17.0064 171.662 12.4928 178.197 12.4928C184.731 12.4928 188.216 16.6231 188.216 23.1997V24.6919H172.953C173.305 28.3625 175.419 30.0464 179.528 30.0464C181.916 30.0464 184.419 29.3972 186.221 27.905L187.942 31.7282C185.946 33.4491 182.58 34.4425 179.292 34.4425C171.856 34.4425 167.159 30.4277 167.159 23.5048L167.161 23.5068ZM183.168 21.6334C182.972 18.1544 181.289 16.5097 178.355 16.5097C175.263 16.5097 173.345 18.2306 172.953 21.6334H183.168Z" fill="#282828"/>
<path d="M192.382 12.9132H198.174V16.5076C199.271 14.0591 201.579 12.7607 204.945 12.5298L206.666 12.3773L207.059 17.2722L203.81 17.6164C200.132 17.9214 198.408 19.529 198.408 22.5875V34.022H192.382V12.9132Z" fill="#282828"/>
<rect width="42.1786" height="40" rx="8" fill="#26282B"/>
<path d="M21.8818 8.45616H21.0529C16.636 8.45616 13.0564 11.9516 13.0564 16.2653V20.546H7.35706V24.5959H13.0564V30.6449H17.1907V24.5959H22.8922V20.546H17.1907V16.2653C17.1907 14.1858 18.9225 12.4937 21.0529 12.4937H21.8818C24.0122 12.4937 25.744 14.1858 25.744 16.2653V30.6429H29.8783V16.2633C29.8783 11.9516 26.2987 8.4541 21.8818 8.4541V8.45616Z" fill="white"/>
</svg>
