<svg width="25" height="24" viewBox="0 0 25 24" fill="none" xmlns="http://www.w3.org/2000/svg">
<path d="M4.57875 24H19.9695C22.3991 24 24.3655 22.0336 24.3655 19.604V4.39286C24.3655 1.96639 22.396 0 19.9695 0H4.57875C2.15228 0 0.182739 1.96639 0.182739 4.39286V19.6008C0.182739 22.0305 2.15228 23.9968 4.57875 23.9968V24ZM1.83715 5.22164C1.83715 3.42857 3.28673 1.96954 5.07665 1.96954H19.1092C20.8991 1.96954 22.3519 3.42857 22.3519 5.22164V12.9359C22.3519 14.7321 20.8991 16.1849 19.1092 16.1849H14.2752L12.6271 18.8697C12.6271 18.8697 12.6113 18.9044 12.5703 18.9517C12.4727 19.1124 12.2962 19.2258 12.0945 19.2258C11.8928 19.2258 11.71 19.1124 11.6124 18.9485C11.5777 18.9044 11.5588 18.8697 11.5588 18.8697L9.90753 16.1849H5.07665C3.28673 16.1849 1.83715 14.729 1.83715 12.9359V5.22164Z" fill="#CACDD1"/>
<path d="M5.33822 10.9472C5.33822 10.9472 5.63759 11.4892 6.39389 11.4892C6.39389 11.4892 8.16175 11.423 8.16175 9.53227C8.16175 9.53227 8.09557 7.6226 6.39389 7.6226C6.39389 7.6226 5.83297 7.6226 5.32561 8.1205V6.12891H4.07141V11.36H5.33822V10.9503V10.9472ZM6.11658 8.76966C6.56091 8.76966 6.9233 9.12891 6.9233 9.57638C6.9233 10.0239 6.56091 10.3831 6.11658 10.3831C5.67225 10.3831 5.30986 10.0239 5.30986 9.57638C5.30986 9.12891 5.6691 8.76966 6.11658 8.76966Z" fill="#CACDD1"/>
<path d="M9.13859 8.25923V11.3538H10.3487V7.97247C10.3487 7.97247 10.4022 6.00293 8.56506 6.00293V7.21616C8.56506 7.21616 9.13544 7.19095 9.13544 8.25923H9.13859Z" fill="#CACDD1"/>
<path d="M13.3109 11.4895C13.3109 11.4895 15.4349 11.4864 15.4349 9.5767C15.4349 9.5767 15.5042 7.63867 13.3109 7.63867C13.3109 7.63867 11.2342 7.63867 11.2342 9.5767C11.2342 9.5767 11.1681 11.4895 13.3109 11.4895ZM13.3109 8.76997C13.7552 8.76997 14.1176 9.12922 14.1176 9.5767C14.1176 10.0242 13.7584 10.3834 13.3109 10.3834C12.8634 10.3834 12.5042 10.0242 12.5042 9.5767C12.5042 9.12922 12.8634 8.76997 13.3109 8.76997Z" fill="#CACDD1"/>
<path d="M17.7951 11.4269C17.7951 11.4269 18.5073 11.4552 18.898 10.9479V11.2409C18.898 11.2409 18.9863 12.158 18.0976 12.158H17.7951V13.2704H18.2835C18.2835 13.2704 20.1176 13.2893 20.1176 11.3103V7.76195H18.8949V8.11804C18.8949 8.11804 18.5356 7.63905 17.8392 7.63905C17.8392 7.63905 16.0619 7.56342 16.0619 9.56132C16.0619 9.56132 16.043 11.4237 17.7888 11.4237L17.7951 11.4269ZM18.148 8.77035C18.5955 8.77035 18.9548 9.12959 18.9548 9.57707C18.9548 10.0246 18.5955 10.3838 18.148 10.3838C17.7006 10.3838 17.3413 10.0246 17.3413 9.57707C17.3413 9.12959 17.7037 8.77035 18.148 8.77035Z" fill="#CACDD1"/>
</svg>
