<svg width="17" height="17" viewBox="0 0 17 17" fill="none" xmlns="http://www.w3.org/2000/svg">
<path d="M14.3327 9.12855C14.0189 12.073 11.5276 14.3666 8.49989 14.3666C5.25979 14.3666 2.63338 11.74 2.63338 8.5C2.63338 5.26001 5.25979 2.63338 8.49989 2.63338C10.0385 2.63338 11.4374 3.22682 12.4837 4.1958L8.56188 8.11763L6.94485 6.50061L5.2653 8.18016L8.56199 11.4766L15.4678 4.57079C15.166 4.03681 14.8045 3.54159 14.3926 3.09305L14.3939 3.09173C14.3538 3.04813 14.3116 3.00673 14.2706 2.96401C14.2411 2.93329 14.2118 2.90236 14.1819 2.87219C14.131 2.82088 14.0795 2.77046 14.0273 2.72058C14.0157 2.70946 14.0045 2.69779 13.9928 2.68667L13.9921 2.68744C12.559 1.33279 10.6275 0.5 8.49989 0.5C4.08151 0.5 0.5 4.08162 0.5 8.49989C0.5 12.9182 4.08151 16.5 8.49989 16.5C12.9183 16.5 16.5 12.9183 16.5 8.49989C16.5 8.01766 16.4553 7.54599 16.3731 7.08743L14.3327 9.12855Z" fill="#047FFF"/>
</svg>
