<svg width="25" height="24" viewBox="0 0 25 24" fill="none" xmlns="http://www.w3.org/2000/svg">
<g clip-path="url(#clip0_1712_265)">
<path d="M4.87992 24H13.3668V14.7072H10.2377V11.0839H13.3668V8.41448C13.3668 5.31375 15.2619 3.62644 18.0258 3.62644C19.3511 3.62644 20.4906 3.72403 20.8212 3.7681V7.00735H18.9009C17.3962 7.00735 17.1066 7.72193 17.1066 8.77335V11.0839H20.6921L20.2262 14.7072H17.1066V24H20.3143C22.7068 24 24.6459 22.0609 24.6459 19.6684V4.33158C24.6459 1.93914 22.7068 0 20.3143 0H4.87992C2.48748 0 0.54834 1.93914 0.54834 4.33158V19.6684C0.54834 22.0609 2.48748 24 4.87992 24Z" fill="#CACDD1"/>
</g>
<defs>
<clipPath id="clip0_1712_265">
<rect width="24.0976" height="24" fill="white" transform="translate(0.54834)"/>
</clipPath>
</defs>
</svg>
