<svg width="25" height="24" viewBox="0 0 25 24" fill="none" xmlns="http://www.w3.org/2000/svg">
<g clip-path="url(#clip0_1712_268)">
<path d="M5.04188 24H20.4326C22.8623 24 24.8286 22.0336 24.8286 19.604V4.39601C24.8286 1.96954 22.8623 0 20.4326 0H5.04188C2.61541 0 0.645874 1.96954 0.645874 4.39601V19.604C0.645874 22.0336 2.61541 24 5.04188 24ZM3.80029 8.22164C3.80029 5.3729 6.11016 3.06302 8.9589 3.06302H16.5156C19.3644 3.06302 21.6742 5.3729 21.6742 8.22164V15.7784C21.6742 18.6303 19.3644 20.937 16.5156 20.937H8.9589C6.11016 20.937 3.80029 18.6303 3.80029 15.7784V8.22164Z" fill="#CACDD1"/>
<path d="M8.87061 19.3358H16.6038C18.4946 19.3358 20.0292 17.8011 20.0292 15.9103V8.1803C20.0292 6.28955 18.4946 4.75488 16.6038 4.75488H8.87061C6.97985 4.75488 5.44519 6.28955 5.44519 8.1803V15.9135C5.44519 17.8043 6.97985 19.3389 8.87061 19.3389V19.3358ZM17.5303 6.15089C18.129 6.15089 18.6112 6.63303 18.6112 7.23177C18.6112 7.83051 18.129 8.31266 17.5303 8.31266C16.9315 8.31266 16.4494 7.83051 16.4494 7.23177C16.4494 6.63303 16.9347 6.15089 17.5303 6.15089ZM12.7372 7.40824C15.2992 7.40824 17.3759 9.48492 17.3759 12.0469C17.3759 14.6089 15.296 16.6824 12.7372 16.6824C10.1784 16.6824 8.1017 14.6057 8.1017 12.0469C8.1017 9.48808 10.1752 7.40824 12.7372 7.40824Z" fill="#CACDD1"/>
<path d="M12.7371 15.0507C14.3979 15.0507 15.7434 13.7051 15.7434 12.0444C15.7434 10.3837 14.3979 9.03809 12.7371 9.03809C11.0764 9.03809 9.73083 10.3837 9.73083 12.0444C9.73083 13.7051 11.0764 15.0507 12.7371 15.0507Z" fill="#CACDD1"/>
</g>
<defs>
<clipPath id="clip0_1712_268">
<rect width="24.1828" height="24" fill="white" transform="translate(0.645874)"/>
</clipPath>
</defs>
</svg>
