<svg width="25" height="24" viewBox="0 0 25 24" fill="none" xmlns="http://www.w3.org/2000/svg">
<g clip-path="url(#clip0_1712_257)">
<path d="M4.82451 24H20.0892C22.5535 24 24.5483 22.0179 24.5483 19.5756V4.42437C24.5483 1.97899 22.5504 0 20.0892 0H4.82451C2.36338 0 0.365479 1.98214 0.365479 4.42752V19.5756C0.365479 22.021 2.36023 24 4.82451 24ZM12.7058 3.77521C17.8298 3.77521 21.9831 7.05567 21.9831 11.1019C21.9831 15.1481 17.8266 18.4317 12.7058 18.4317C12.1386 18.4317 11.5808 18.3876 11.0356 18.3088L7.27619 20.8487C7.22577 20.8866 7.1722 20.9118 7.11548 20.9118C7.043 20.9118 6.97682 20.8834 6.9264 20.833C6.85392 20.7605 6.82871 20.6534 6.86023 20.5557L7.73628 17.291C5.15224 15.9863 3.43165 13.708 3.43165 11.105C3.43165 7.05567 7.58502 3.77836 12.709 3.77836L12.7058 3.77521Z" fill="#CACDD1"/>
<path d="M6.68381 9.942V13.421C6.68066 13.4714 6.68381 13.5155 6.69011 13.5628C6.71532 13.6889 6.77519 13.7897 6.86973 13.8653C6.96427 13.9378 7.07771 13.9756 7.21007 13.9756C7.37393 13.9756 7.50629 13.9252 7.60082 13.8244C7.69851 13.7235 7.74578 13.588 7.74578 13.421V9.942H8.75734C8.91805 9.942 9.0504 9.90104 9.15125 9.81911C9.25209 9.73402 9.30566 9.62373 9.30566 9.46932C9.30566 9.43465 9.30566 9.39999 9.29935 9.36848C9.27414 9.24873 9.21427 9.16049 9.11343 9.09747C9.01574 9.03444 8.89599 9.00293 8.75419 9.00293H5.66595C5.50524 9.00293 5.37288 9.04705 5.26889 9.12898C5.16175 9.20776 5.11133 9.32436 5.11133 9.47247C5.11448 9.51028 5.12078 9.54495 5.12708 9.57646C5.14914 9.69306 5.21217 9.78444 5.31301 9.84747C5.41385 9.91049 5.5336 9.942 5.67225 9.942H6.68066H6.68381Z" fill="#CACDD1"/>
<path d="M8.11758 13.2921C8.09552 13.3678 8.08606 13.4339 8.08921 13.4875C8.08921 13.5285 8.08921 13.5663 8.09867 13.601C8.12388 13.7176 8.17745 13.8121 8.26253 13.8783C8.34762 13.9444 8.45161 13.976 8.57766 13.976C8.82976 13.976 8.99047 13.8751 9.05665 13.6703L9.33396 12.8573H11.0545L11.3319 13.6703C11.4043 13.872 11.5651 13.976 11.8109 13.976C11.9495 13.976 12.0661 13.9318 12.1669 13.8342C12.2646 13.7396 12.3151 13.6262 12.3182 13.4875C12.3182 13.456 12.3088 13.415 12.2993 13.3583C12.2835 13.2764 12.2552 13.1755 12.2111 13.0589L10.9222 9.32155C10.8686 9.16399 10.7961 9.05369 10.7016 9.00012C10.6071 8.9434 10.4905 8.91504 10.3518 8.91504H10.0966C9.96421 8.91504 9.85392 8.94025 9.76884 8.99382C9.68375 9.04424 9.61758 9.13248 9.57346 9.25538L8.19321 13.0621C8.16484 13.1377 8.13963 13.2165 8.12073 13.2921H8.11758ZM10.2037 10.1251H10.2163L10.8245 12.0852H9.57346L10.2037 10.1251Z" fill="#CACDD1"/>
<path d="M12.7027 13.7868C12.8036 13.8561 12.9391 13.8908 13.1029 13.8908H15.3309C15.4916 13.8908 15.6239 13.8498 15.7279 13.7679C15.8319 13.6859 15.8855 13.5694 15.8855 13.4212C15.8855 13.3866 15.876 13.3488 15.8697 13.3204C15.8477 13.2038 15.7847 13.1124 15.6901 13.0494C15.5924 12.9864 15.4727 12.9549 15.3277 12.9549H13.5441V9.47271C13.5473 9.42544 13.5441 9.37818 13.5347 9.33091C13.5094 9.20486 13.4496 9.10402 13.355 9.02839C13.2605 8.95275 13.147 8.91809 13.0115 8.91809C12.8477 8.91809 12.7153 8.96851 12.6208 9.06935C12.5231 9.17019 12.4758 9.3057 12.4758 9.47271V13.2385C12.4758 13.3204 12.4853 13.3929 12.4979 13.4559C12.5294 13.6103 12.5956 13.7206 12.6996 13.7868H12.7027Z" fill="#CACDD1"/>
<path d="M16.0083 13.563C16.0335 13.6891 16.0934 13.7899 16.1879 13.8656C16.2825 13.938 16.3959 13.9759 16.5314 13.9759C16.6953 13.9759 16.8245 13.9254 16.9222 13.8246C17.0199 13.7238 17.0671 13.5883 17.0703 13.4212L17.064 12.3151L17.6501 11.7038L18.8823 13.6859C18.9516 13.7994 19.0241 13.875 19.0934 13.9191C19.1627 13.957 19.2509 13.9759 19.3612 13.9759C19.5125 13.9759 19.6417 13.9349 19.7488 13.8498C19.856 13.7679 19.9096 13.6292 19.9096 13.4401C19.9096 13.4338 19.9096 13.4244 19.9096 13.4055C19.9064 13.3897 19.9033 13.3771 19.9001 13.3708C19.8875 13.3015 19.8339 13.2007 19.7457 13.062L19.7079 12.999L18.4096 10.9412L19.5062 9.74372C19.5566 9.68385 19.6007 9.62712 19.6323 9.5641C19.6638 9.50738 19.6795 9.43805 19.6827 9.36242C19.6827 9.34981 19.6795 9.33406 19.6827 9.3183C19.6795 9.29624 19.6764 9.28049 19.6764 9.27733C19.6543 9.16704 19.5944 9.07881 19.4999 9.01578C19.4054 8.9496 19.2982 8.91809 19.1816 8.91809C19.0934 8.91809 19.0209 8.937 18.9579 8.97796C18.898 9.01893 18.8287 9.07881 18.753 9.16074L17.0766 11.0893V9.47271C17.0766 9.42544 17.0734 9.37818 17.064 9.33091C17.0388 9.20486 16.9789 9.10402 16.8844 9.02839C16.793 8.95275 16.6764 8.91809 16.544 8.91809C16.3801 8.91809 16.2478 8.96851 16.1533 9.06935C16.0556 9.17019 16.0083 9.3057 16.0083 9.47271V13.4212C16.0083 13.4717 16.0083 13.5158 16.0178 13.563H16.0083Z" fill="#CACDD1"/>
</g>
<defs>
<clipPath id="clip0_1712_257">
<rect width="24.1828" height="24" fill="white" transform="translate(0.365479)"/>
</clipPath>
</defs>
</svg>
