<svg width="138" height="28" viewBox="0 0 138 28" fill="none" xmlns="http://www.w3.org/2000/svg">
<path d="M36.4146 4.00502H44.7356C48.7787 4.00502 51.1264 6.27195 51.1264 10.0768C51.1264 13.8817 48.7787 16.1754 44.7356 16.1754H40.3536V23.1854H36.4146V4.00502ZM44.0313 13.0741C46.1442 13.0741 47.318 12.0839 47.318 10.0768C47.318 8.06976 46.1442 7.13152 44.0313 7.13152H40.3536V13.0727H44.0313V13.0741Z" fill="#282828"/>
<path d="M52.9005 18.8341C52.9005 15.9675 54.8574 14.6908 61.1948 14.6908H62.3687V13.8831C62.3687 12.1373 61.5336 11.4856 59.6034 11.4856C57.908 11.4856 56.1339 11.9814 54.5425 12.9716L53.4474 10.2608C54.96 9.21867 57.6212 8.51499 59.7862 8.51499C63.9601 8.51499 66.125 10.2875 66.125 14.327V23.1882H62.4207V21.0519C61.7684 22.5379 60.3345 23.4761 58.3256 23.4761C55.0655 23.4761 52.9005 21.4438 52.9005 18.8369V18.8341ZM59.1606 20.7359C60.96 20.7359 62.3687 19.5631 62.3687 17.608V16.7484H61.2215C57.7267 16.7484 56.7356 17.4001 56.7356 18.7288C56.7356 19.9536 57.6226 20.7359 59.162 20.7359H59.1606Z" fill="#282828"/>
<path d="M69.599 8.8001H73.4594V11.2496C74.1904 9.58103 75.7284 8.69617 77.972 8.53886L79.1192 8.43492L79.3807 11.7707L77.2157 12.0053C74.764 12.2131 73.6154 13.3087 73.6154 15.393V23.1854H69.599V8.8001Z" fill="#282828"/>
<path d="M84.2319 17.8959V11.7454H81.4414V8.80008H84.2319V5.17777H88.1963V8.80008H92.5009V11.7454H88.1963V17.7133C88.1963 19.4072 88.9527 20.2667 90.7001 20.2667C91.2737 20.2667 91.8739 20.1108 92.4995 19.9282L93.0478 22.8216C92.2915 23.212 91.0909 23.4733 89.9958 23.4733C86.1354 23.4733 84.2305 21.5968 84.2305 17.8959H84.2319Z" fill="#282828"/>
<path d="M95.009 8.80012H98.8961V10.9364C99.8872 9.37317 101.583 8.51218 103.644 8.51218C107.009 8.51218 108.73 10.362 108.73 14.4281V23.184H104.765V14.6107C104.765 12.421 103.905 11.6134 102.314 11.6134C100.279 11.6134 98.9481 12.9941 98.9481 15.0278V23.1854H95.009V8.80012Z" fill="#282828"/>
<path d="M111.409 16.0194C111.409 11.5895 114.409 8.51353 118.764 8.51353C123.119 8.51353 125.442 11.3282 125.442 15.8101V16.827H115.269C115.504 19.3285 116.913 20.476 119.651 20.476C121.243 20.476 122.911 20.0336 124.112 19.0167L125.259 21.6221C123.929 22.7949 121.685 23.4719 119.494 23.4719C114.538 23.4719 111.408 20.7358 111.408 16.018L111.409 16.0194ZM122.078 14.7427C121.947 12.3718 120.825 11.251 118.87 11.251C116.809 11.251 115.531 12.4238 115.269 14.7427H122.078Z" fill="#282828"/>
<path d="M128.218 8.8001H132.079V11.2496C132.81 9.58103 134.348 8.69617 136.591 8.53886L137.739 8.43492L138 11.7707L135.835 12.0053C133.383 12.2131 132.235 13.3087 132.235 15.393V23.1854H128.218V8.8001Z" fill="#282828"/>
<rect width="28.1111" height="27.2593" rx="8" fill="#26282B"/>
<path d="M14.5839 5.76285H14.0314C11.0876 5.76285 8.70196 8.14495 8.70196 11.0846V14.0019H4.90344V16.7618H8.70196V20.8841H11.4574V16.7618H15.2573V14.0019H11.4574V11.0846C11.4574 9.66747 12.6115 8.51434 14.0314 8.51434H14.5839C16.0038 8.51434 17.1579 9.66747 17.1579 11.0846V20.8827H19.9133V11.0832C19.9133 8.14495 17.5277 5.76144 14.5839 5.76144V5.76285Z" fill="white"/>
</svg>
