<svg width="16" height="11" viewBox="0 0 16 11" fill="none" xmlns="http://www.w3.org/2000/svg">
<path d="M11.2511 10.658C10.5924 10.658 10.0224 10.43 9.54106 9.974C9.05972 9.518 8.81906 8.85933 8.81906 7.998C8.81906 7.49133 8.95839 6.92133 9.23705 6.288C9.54106 5.62933 9.89572 4.98333 10.3011 4.35C10.7317 3.69133 11.1624 3.10867 11.5931 2.602C12.0237 2.09533 12.3784 1.728 12.6571 1.5C12.8851 1.29733 13.1257 1.09467 13.3791 0.891999C13.6577 0.689332 13.9617 0.587998 14.2911 0.587998C14.7217 0.587998 14.9751 0.714665 15.0511 0.967998C15.1524 1.196 15.2031 1.348 15.2031 1.424C15.2031 1.62667 15.1524 1.79133 15.0511 1.918C14.9751 2.04467 14.8484 2.19667 14.6711 2.374C14.2657 2.77933 13.8477 3.21 13.4171 3.666C13.0117 4.122 12.6824 4.654 12.4291 5.262C13.0624 5.28733 13.5691 5.51533 13.9491 5.946C14.3544 6.37667 14.5571 6.896 14.5571 7.504C14.5571 8.28933 14.2277 9.01133 13.5691 9.67C12.9104 10.3287 12.1377 10.658 11.2511 10.658ZM2.92905 10.658C2.24505 10.658 1.66239 10.43 1.18105 9.974C0.699721 9.518 0.459055 8.85933 0.459055 7.998C0.459055 7.49133 0.598388 6.92133 0.877055 6.288C1.18105 5.62933 1.53572 4.98333 1.94105 4.35C2.37172 3.69133 2.80239 3.10867 3.23305 2.602C3.66372 2.09533 4.03106 1.728 4.33505 1.5C4.56306 1.29733 4.80372 1.09467 5.05705 0.891999C5.31039 0.689332 5.60172 0.587998 5.93105 0.587998C6.36172 0.587998 6.62772 0.714665 6.72906 0.967998C6.83039 1.196 6.88106 1.348 6.88106 1.424C6.88106 1.62667 6.83039 1.79133 6.72906 1.918C6.62772 2.04467 6.48839 2.19667 6.31106 2.374C5.90572 2.77933 5.50039 3.21 5.09505 3.666C4.68972 4.122 4.34772 4.654 4.06905 5.262C4.72772 5.28733 5.24705 5.51533 5.62705 5.946C6.00706 6.37667 6.19706 6.896 6.19706 7.504C6.19706 8.036 6.04506 8.54267 5.74105 9.024C5.43706 9.50533 5.03172 9.898 4.52505 10.202C4.04372 10.506 3.51172 10.658 2.92905 10.658Z" fill="#A0A4A8"/>
</svg>
