<svg width="19" height="17" viewBox="0 0 19 17" fill="none" xmlns="http://www.w3.org/2000/svg">
<path d="M18.0623 13.7362L11.2984 1.27783C11.1194 0.948809 10.8549 0.674158 10.5329 0.482793C10.2108 0.291429 9.84317 0.19043 9.46857 0.19043C9.09398 0.19043 8.72631 0.291429 8.40428 0.482793C8.08226 0.674158 7.81778 0.948809 7.63871 1.27783L0.867875 13.7362C0.690656 14.0543 0.599906 14.4133 0.604671 14.7774C0.609435 15.1415 0.709548 15.4979 0.895029 15.8113C1.08051 16.1247 1.34488 16.3839 1.66179 16.5633C1.9787 16.7426 2.33708 16.8357 2.70121 16.8334H16.229C16.5901 16.8337 16.9452 16.7402 17.2592 16.5619C17.5733 16.3836 17.8357 16.1268 18.0205 15.8166C18.2054 15.5063 18.3065 15.1534 18.3138 14.7923C18.3211 14.4312 18.2345 14.0745 18.0623 13.757V13.7362ZM8.43038 4.84727C8.43038 4.57101 8.54012 4.30605 8.73547 4.1107C8.93082 3.91535 9.19578 3.80561 9.47204 3.80561C9.74831 3.80561 10.0133 3.91535 10.2086 4.1107C10.404 4.30605 10.5137 4.57101 10.5137 4.84727V9.63199C10.5137 9.90826 10.404 10.1732 10.2086 10.3686C10.0133 10.5639 9.74831 10.6737 9.47204 10.6737C9.19578 10.6737 8.93082 10.5639 8.73547 10.3686C8.54012 10.1732 8.43038 9.90826 8.43038 9.63199V4.84727ZM9.49982 14.2292C9.26358 14.2292 9.03265 14.1592 8.83622 14.0279C8.6398 13.8967 8.4867 13.7101 8.3963 13.4919C8.30589 13.2736 8.28224 13.0334 8.32833 12.8017C8.37441 12.57 8.48817 12.3572 8.65522 12.1902C8.82227 12.0231 9.0351 11.9094 9.2668 11.8633C9.4985 11.8172 9.73866 11.8408 9.95691 11.9312C10.1752 12.0217 10.3617 12.1747 10.493 12.3712C10.6242 12.5676 10.6943 12.7985 10.6943 13.0348C10.6943 13.3516 10.5684 13.6554 10.3444 13.8794C10.1204 14.1034 9.81661 14.2292 9.49982 14.2292Z" fill="#FF0000"/>
</svg>
