<svg width="112" height="22" viewBox="0 0 112 22" fill="none" xmlns="http://www.w3.org/2000/svg">
<path d="M29.3889 3.23242H36.1045C39.3675 3.23242 41.2623 5.06198 41.2623 8.13277C41.2623 11.2036 39.3675 13.0547 36.1045 13.0547H32.568V18.7122H29.3889V3.23242ZM35.536 10.5518C37.2413 10.5518 38.1887 9.75262 38.1887 8.13277C38.1887 6.51292 37.2413 5.75571 35.536 5.75571H32.568V10.5506H35.536V10.5518Z" fill="#74787D"/>
<path d="M42.6941 15.2003C42.6941 12.8867 44.2734 11.8563 49.3881 11.8563H50.3355V11.2045C50.3355 9.7955 49.6616 9.26953 48.1038 9.26953C46.7355 9.26953 45.3036 9.66968 44.0193 10.4688L43.1354 8.28108C44.3563 7.43998 46.504 6.87207 48.2513 6.87207C51.6199 6.87207 53.3671 8.30261 53.3671 11.5627V18.7143H50.3775V16.9902C49.851 18.1895 48.6938 18.9467 47.0724 18.9467C44.4413 18.9467 42.6941 17.3064 42.6941 15.2026V15.2003ZM47.7464 16.7351C49.1987 16.7351 50.3355 15.7886 50.3355 14.2107V13.517H49.4097C46.5891 13.517 45.7892 14.0429 45.7892 15.1153C45.7892 16.1037 46.5052 16.7351 47.7475 16.7351H47.7464Z" fill="#74787D"/>
<path d="M56.1708 7.10222H59.2864V9.07914C59.8764 7.73247 61.1176 7.01834 62.9284 6.89138L63.8542 6.8075L64.0653 9.49968L62.318 9.68899C60.3393 9.85675 59.4123 10.7409 59.4123 12.4231V18.7121H56.1708V7.10222Z" fill="#74787D"/>
<path d="M67.9805 14.443V9.4792H65.7284V7.10214H67.9805V4.17871H71.1801V7.10214H74.6541V9.4792H71.1801V14.2957C71.1801 15.6627 71.7905 16.3565 73.2007 16.3565C73.6637 16.3565 74.1481 16.2306 74.653 16.0833L75.0955 18.4184C74.4851 18.7335 73.5162 18.9444 72.6323 18.9444C69.5168 18.9444 67.9794 17.4299 67.9794 14.443H67.9805Z" fill="#74787D"/>
<path d="M76.6783 7.10225H79.8155V8.82639C80.6153 7.56474 81.9837 6.86987 83.647 6.86987C86.3631 6.86987 87.7519 8.36276 87.7519 11.6444V18.711H84.5523V11.7918C84.5523 10.0246 83.858 9.37276 82.5736 9.37276C80.9319 9.37276 79.8574 10.487 79.8574 12.1284V18.7121H76.6783V7.10225Z" fill="#74787D"/>
<path d="M89.9142 12.9286C89.9142 9.35333 92.3354 6.87085 95.8503 6.87085C99.3652 6.87085 101.24 9.14249 101.24 12.7597V13.5804H93.0298C93.2192 15.5992 94.3561 16.5253 96.5662 16.5253C97.8506 16.5253 99.1973 16.1683 100.166 15.3476L101.092 17.4503C100.019 18.3968 98.208 18.9432 96.4392 18.9432C92.4398 18.9432 89.9131 16.735 89.9131 12.9274L89.9142 12.9286ZM98.5245 11.8982C98.419 9.98472 97.5136 9.08014 95.9354 9.08014C94.2721 9.08014 93.2408 10.0267 93.0298 11.8982H98.5245Z" fill="#74787D"/>
<path d="M103.48 7.10222H106.596V9.07914C107.186 7.73247 108.427 7.01834 110.238 6.89138L111.164 6.8075L111.375 9.49968L109.628 9.68899C107.649 9.85675 106.722 10.7409 106.722 12.4231V18.7121H103.48V7.10222Z" fill="#74787D"/>
<rect width="22.6875" height="22" rx="8" fill="#74787D"/>
<path d="M11.7701 4.65104H11.3242C8.94843 4.65104 7.02304 6.57354 7.02304 8.94607V11.3005H3.9574V13.5279H7.02304V16.8549H9.24683V13.5279H12.3136V11.3005H9.24683V8.94607C9.24683 7.80231 10.1783 6.87167 11.3242 6.87167H11.7701C12.9161 6.87167 13.8476 7.80231 13.8476 8.94607V16.8537H16.0713V8.94493C16.0713 6.57354 14.146 4.6499 11.7701 4.6499V4.65104Z" fill="white"/>
</svg>
