<svg width="17" height="19" viewBox="0 0 17 19" fill="none" xmlns="http://www.w3.org/2000/svg">
<path fill-rule="evenodd" clip-rule="evenodd" d="M5 3C5 2.44772 5.44772 2 6 2H11C11.5523 2 12 2.44772 12 3V5C12 5.55228 11.5523 6 11 6H6C5.44772 6 5 5.55228 5 5V3ZM3.17071 6C3.06015 5.68722 3 5.35064 3 5V3C3 1.34315 4.34315 0 6 0H11C12.6569 0 14 1.34315 14 3V5C14 5.35064 13.9398 5.68722 13.8293 6H14C15.6569 6 17 7.34315 17 9V16C17 17.6569 15.6569 19 14 19H3C1.34315 19 0 17.6569 0 16V9C0 7.34315 1.34315 6 3 6H3.17071ZM10 11.5C10 10.6716 9.32843 10 8.5 10C7.67157 10 7 10.6716 7 11.5C7 12.1531 7.4174 12.7087 8 12.9146V15H9V12.9146C9.5826 12.7087 10 12.1531 10 11.5Z" fill="#CACDD1"/>
</svg>
