<svg width="16" height="10" viewBox="0 0 16 10" fill="none" xmlns="http://www.w3.org/2000/svg">
<path d="M15.7071 2.20711C16.0976 1.81658 16.0976 1.18342 15.7071 0.792893C15.3166 0.402369 14.6834 0.402369 14.2929 0.792893L15.7071 2.20711ZM8 8.5L7.29289 9.20711C7.68342 9.59763 8.31658 9.59763 8.70711 9.20711L8 8.5ZM1.70711 0.792892C1.31658 0.402367 0.683418 0.402367 0.292894 0.792892C-0.0976308 1.18342 -0.0976309 1.81658 0.292894 2.20711L1.70711 0.792892ZM14.2929 0.792893L7.29289 7.79289L8.70711 9.20711L15.7071 2.20711L14.2929 0.792893ZM8.70711 7.79289L1.70711 0.792892L0.292894 2.20711L7.29289 9.20711L8.70711 7.79289Z" fill="#26282B"/>
</svg>
