<svg width="25" height="24" viewBox="0 0 25 24" fill="none" xmlns="http://www.w3.org/2000/svg">
<g clip-path="url(#clip0_1712_244)">
<path d="M19.7868 0H4.39601C1.96954 0 0 1.96954 0 4.39601V19.604C0 22.0336 1.96954 24 4.39601 24H19.7868C22.2164 24 24.1828 22.0336 24.1828 19.604V4.39601C24.1828 1.96954 22.2164 0 19.7868 0ZM19.0242 12.0819C19.0242 12.8256 18.9013 14.77 18.813 15.126C18.5483 16.1817 18.0536 16.5914 17.1397 16.7363C16.6134 16.8151 14.0924 16.9128 12.0882 16.9128H12.0977C10.0935 16.9128 7.56933 16.8151 7.04307 16.7363C6.13235 16.5914 5.63445 16.1817 5.3729 15.126C5.28466 14.77 5.16176 12.8256 5.16176 12.0819V11.9181C5.16176 11.1775 5.28466 9.23004 5.3729 8.8771C5.63445 7.81828 6.13235 7.41176 7.04307 7.26365C7.56618 7.18487 10.0872 7.08718 12.0914 7.08718C14.0956 7.08718 16.6166 7.18487 17.1397 7.26365C18.0536 7.40861 18.5483 7.81828 18.813 8.8771C18.9013 9.23004 19.0242 11.1775 19.0242 11.9181V12.0819Z" fill="#CACDD1"/>
<path d="M10.3 14.5498L14.8 11.9922L10.3 9.5498V14.5498Z" fill="#CACDD1"/>
</g>
<defs>
<clipPath id="clip0_1712_244">
<rect width="24.1828" height="24" fill="white"/>
</clipPath>
</defs>
</svg>
